<svg width="660" height="200" viewBox="0 0 660 200" fill="none" xmlns="http://www.w3.org/2000/svg">
<rect width="660" height="200" fill="#F5F5F5"/>
<rect width="660" height="200" fill="white"/>
<g filter="url(#filter0_d_861_19346)">
<path d="M52.2 68.9602C52.2 65.779 54.7788 63.2002 57.96 63.2002H76.72C79.9011 63.2002 82.48 65.779 82.48 68.9602V100.64C82.48 103.821 79.9011 106.4 76.72 106.4H57.9599C54.7788 106.4 52.2 103.821 52.2 100.64V68.9602Z" fill="#FF6340" fill-opacity="0.8" shape-rendering="crispEdges"/>
<path d="M57.9597 63.9199H76.7195C79.5029 63.9199 81.7594 66.1766 81.7595 68.96V100.641C81.7593 103.424 79.5029 105.681 76.7195 105.681H57.9597C55.1765 105.681 52.9199 103.424 52.9197 100.641V68.96C52.9198 66.1766 55.1764 63.92 57.9597 63.9199Z" stroke="black" stroke-opacity="0.1" stroke-width="1.44" shape-rendering="crispEdges"/>
<text fill="black" xml:space="preserve" style="white-space: pre" font-family="Iowan Old Style BT" font-size="21.6" letter-spacing="0em"><tspan x="60.84" y="91.8306">5</tspan></text>
</g>
<g filter="url(#filter1_d_861_19346)">
<path d="M91.08 68.9602C91.08 65.779 93.6588 63.2002 96.84 63.2002H120.6C123.781 63.2002 126.36 65.779 126.36 68.9602V100.64C126.36 103.821 123.781 106.4 120.6 106.4H96.84C93.6588 106.4 91.08 103.821 91.08 100.64V68.9602Z" fill="#FFCBBF" fill-opacity="0.8" shape-rendering="crispEdges"/>
<path d="M96.8397 63.9199H120.599C123.383 63.9199 125.639 66.1766 125.64 68.96V100.641C125.639 103.424 123.383 105.681 120.599 105.681H96.8397C94.0565 105.681 91.7999 103.424 91.7997 100.641V68.96C91.7998 66.1766 94.0564 63.92 96.8397 63.9199Z" stroke="black" stroke-opacity="0.1" stroke-width="1.44" shape-rendering="crispEdges"/>
<text fill="black" xml:space="preserve" style="white-space: pre" font-family="Iowan Old Style BT" font-size="21.6" letter-spacing="0em"><tspan x="99.72" y="91.8306">+</tspan></text>
</g>
<g filter="url(#filter2_d_861_19346)">
<path d="M135.72 68.9602C135.72 65.779 138.299 63.2002 141.48 63.2002H160.24C163.421 63.2002 166 65.779 166 68.9602V100.64C166 103.821 163.421 106.4 160.24 106.4H141.48C138.299 106.4 135.72 103.821 135.72 100.64V68.9602Z" fill="#EA2B00" fill-opacity="0.9" shape-rendering="crispEdges"/>
<path d="M141.48 63.9199H160.239C163.023 63.9199 165.279 66.1766 165.279 68.96V100.641C165.279 103.424 163.023 105.681 160.239 105.681H141.48C138.696 105.681 136.44 103.424 136.44 100.641V68.96C136.44 66.1766 138.696 63.92 141.48 63.9199Z" stroke="black" stroke-opacity="0.1" stroke-width="1.44" shape-rendering="crispEdges"/>
<text fill="black" xml:space="preserve" style="white-space: pre" font-family="Iowan Old Style BT" font-size="21.6" letter-spacing="0em"><tspan x="144.36" y="91.8306">2</tspan></text>
</g>
<g filter="url(#filter3_d_861_19346)">
<path d="M174.6 68.9602C174.6 65.779 177.179 63.2002 180.36 63.2002H202.12C205.301 63.2002 207.88 65.779 207.88 68.9602V100.64C207.88 103.821 205.301 106.4 202.12 106.4H180.36C177.179 106.4 174.6 103.821 174.6 100.64V68.9602Z" fill="#EA2B00" fill-opacity="0.8" shape-rendering="crispEdges"/>
<path d="M180.36 63.9199H202.119C204.903 63.9199 207.159 66.1766 207.159 68.96V100.641C207.159 103.424 204.903 105.681 202.119 105.681H180.36C177.576 105.681 175.32 103.424 175.32 100.641V68.96C175.32 66.1766 177.576 63.92 180.36 63.9199Z" stroke="black" stroke-opacity="0.1" stroke-width="1.44" shape-rendering="crispEdges"/>
<text fill="black" xml:space="preserve" style="white-space: pre" font-family="Iowan Old Style BT" font-size="21.6" letter-spacing="0em"><tspan x="183.24" y="91.8306">is</tspan></text>
</g>
<g filter="url(#filter4_d_861_19346)">
<rect x="216.36" y="63.2002" width="30.28" height="43.2" rx="5.76" fill="white" shape-rendering="crispEdges"/>
<rect x="217.08" y="63.9202" width="28.84" height="41.76" rx="5.04" stroke="black" stroke-opacity="0.16" stroke-width="1.44" shape-rendering="crispEdges"/>
<text fill="black" xml:space="preserve" style="white-space: pre" font-family="Iowan Old Style BT" font-size="21.6" letter-spacing="0em"><tspan x="225" y="91.8306">7</tspan></text>
</g>
<g filter="url(#filter5_d_861_19346)">
<rect x="255.24" y="63.2002" width="34.56" height="43.2" rx="5.76" fill="white" shape-rendering="crispEdges"/>
<rect x="255.96" y="63.9202" width="33.12" height="41.76" rx="5.04" stroke="black" stroke-opacity="0.16" stroke-width="1.44" shape-rendering="crispEdges"/>
<text fill="black" xml:space="preserve" style="white-space: pre" font-family="Iowan Old Style BT" font-size="21.6" letter-spacing="0em"><tspan x="269.02" y="91.8306">,</tspan></text>
</g>
<g filter="url(#filter6_d_861_19346)">
<path d="M298.44 68.9602C298.44 65.779 301.019 63.2002 304.2 63.2002H345.96C349.141 63.2002 351.72 65.779 351.72 68.9602V100.64C351.72 103.821 349.141 106.4 345.96 106.4H304.2C301.019 106.4 298.44 103.821 298.44 100.64V68.9602Z" fill="#FF6340" fill-opacity="0.8" shape-rendering="crispEdges"/>
<path d="M304.2 63.9199H345.959C348.743 63.9199 350.999 66.1766 350.999 68.96V100.641C350.999 103.424 348.743 105.681 345.959 105.681H304.2C301.416 105.681 299.16 103.424 299.16 100.641V68.96C299.16 66.1766 301.416 63.92 304.2 63.9199Z" stroke="black" stroke-opacity="0.1" stroke-width="1.44" shape-rendering="crispEdges"/>
<text fill="black" xml:space="preserve" style="white-space: pre" font-family="Iowan Old Style BT" font-size="21.6" letter-spacing="0em"><tspan x="307.08" y="91.8306">and</tspan></text>
</g>
<g filter="url(#filter7_d_861_19346)">
<path d="M360.36 68.9602C360.36 65.779 362.939 63.2002 366.12 63.2002H384.88C388.061 63.2002 390.64 65.779 390.64 68.9602V100.64C390.64 103.821 388.061 106.4 384.88 106.4H366.12C362.939 106.4 360.36 103.821 360.36 100.64V68.9602Z" fill="#FFCBBF" fill-opacity="0.8" shape-rendering="crispEdges"/>
<path d="M366.12 63.9199H384.879C387.663 63.9199 389.919 66.1766 389.919 68.96V100.641C389.919 103.424 387.663 105.681 384.879 105.681H366.12C363.336 105.681 361.08 103.424 361.08 100.641V68.96C361.08 66.1766 363.336 63.92 366.12 63.9199Z" stroke="black" stroke-opacity="0.1" stroke-width="1.44" shape-rendering="crispEdges"/>
<text fill="black" xml:space="preserve" style="white-space: pre" font-family="Iowan Old Style BT" font-size="21.6" letter-spacing="0em"><tspan x="369" y="91.8306">7</tspan></text>
</g>
<g filter="url(#filter8_d_861_19346)">
<path d="M399.24 68.9602C399.24 65.779 401.819 63.2002 405 63.2002H428.76C431.941 63.2002 434.52 65.779 434.52 68.9602V100.64C434.52 103.821 431.941 106.4 428.76 106.4H405C401.819 106.4 399.24 103.821 399.24 100.64V68.9602Z" fill="#FFF1ED" shape-rendering="crispEdges"/>
<path d="M405 63.9199H428.759C431.543 63.9199 433.799 66.1766 433.799 68.96V100.641C433.799 103.424 431.543 105.681 428.759 105.681H405C402.216 105.681 399.96 103.424 399.96 100.641V68.96C399.96 66.1766 402.216 63.92 405 63.9199Z" stroke="black" stroke-opacity="0.16" stroke-width="1.44" shape-rendering="crispEdges"/>
<text fill="black" xml:space="preserve" style="white-space: pre" font-family="Iowan Old Style BT" font-size="21.6" letter-spacing="0em"><tspan x="407.88" y="91.8306">&#xd7;</tspan></text>
</g>
<g filter="url(#filter9_d_861_19346)">
<rect x="443.88" y="63.2002" width="30.28" height="43.2" rx="5.76" fill="white" shape-rendering="crispEdges"/>
<rect x="444.6" y="63.9202" width="28.84" height="41.76" rx="5.04" stroke="black" stroke-opacity="0.16" stroke-width="1.44" shape-rendering="crispEdges"/>
<text fill="black" xml:space="preserve" style="white-space: pre" font-family="Iowan Old Style BT" font-size="21.6" letter-spacing="0em"><tspan x="452.52" y="91.8306">3</tspan></text>
</g>
<g filter="url(#filter10_d_861_19346)">
<path d="M482.76 68.9602C482.76 65.779 485.339 63.2002 488.52 63.2002H510.28C513.461 63.2002 516.04 65.779 516.04 68.9602V100.64C516.04 103.821 513.461 106.4 510.28 106.4H488.52C485.339 106.4 482.76 103.821 482.76 100.64V68.9602Z" fill="#FFCBBF" shape-rendering="crispEdges"/>
<path d="M488.52 63.9199H510.279C513.063 63.9199 515.319 66.1766 515.319 68.96V100.641C515.319 103.424 513.063 105.681 510.279 105.681H488.52C485.736 105.681 483.48 103.424 483.48 100.641V68.96C483.48 66.1766 485.736 63.92 488.52 63.9199Z" stroke="black" stroke-opacity="0.1" stroke-width="1.44" shape-rendering="crispEdges"/>
<text fill="black" xml:space="preserve" style="white-space: pre" font-family="Iowan Old Style BT" font-size="21.6" letter-spacing="0em"><tspan x="491.4" y="91.8306">is</tspan></text>
</g>
<g filter="url(#filter11_d_861_19346)">
<rect x="524.52" y="63.2002" width="42.28" height="43.2" rx="5.76" fill="white" shape-rendering="crispEdges"/>
<rect x="525.24" y="63.9202" width="40.84" height="41.76" rx="5.04" stroke="black" stroke-opacity="0.16" stroke-width="1.44" shape-rendering="crispEdges"/>
<text fill="black" xml:space="preserve" style="white-space: pre" font-family="Iowan Old Style BT" font-size="21.6" letter-spacing="0em"><tspan x="533.16" y="91.8306">21</tspan></text>
</g>
<g filter="url(#filter12_d_861_19346)">
<rect x="574.92" y="63.2002" width="34.56" height="43.2" rx="5.76" fill="white" shape-rendering="crispEdges"/>
<rect x="575.64" y="63.9202" width="33.12" height="41.76" rx="5.04" stroke="black" stroke-opacity="0.16" stroke-width="1.44" shape-rendering="crispEdges"/>
<text fill="black" xml:space="preserve" style="white-space: pre" font-family="Iowan Old Style BT" font-size="21.6" letter-spacing="0em"><tspan x="588.7" y="91.8306">.</tspan></text>
</g>
<text fill="#FF5731" xml:space="preserve" style="white-space: pre" font-family="SF Mono" font-size="12.96" font-weight="600" letter-spacing="0em"><tspan x="55.5628" y="121.388">40%</tspan></text>
<text fill="#FF7757" xml:space="preserve" style="white-space: pre" font-family="SF Mono" font-size="12.96" font-weight="600" letter-spacing="0em"><tspan x="97.3227" y="121.388">80%</tspan></text>
<text fill="#EC401A" xml:space="preserve" style="white-space: pre" font-family="SF Mono" font-size="12.96" font-weight="600" letter-spacing="0em"><tspan x="143.409" y="121.388">5%</tspan></text>
<text fill="#EC401A" xml:space="preserve" style="white-space: pre" font-family="SF Mono" font-size="12.96" font-weight="600" letter-spacing="0em"><tspan x="179.403" y="121.388">15%</tspan></text>
<text fill="black" xml:space="preserve" style="white-space: pre" font-family="SF Mono" font-size="12.96" font-weight="600" letter-spacing="0em"><tspan x="219.723" y="121.388">99%</tspan></text>
<text fill="black" xml:space="preserve" style="white-space: pre" font-family="SF Mono" font-size="12.96" font-weight="600" letter-spacing="0em"><tspan x="261.483" y="121.388">99%</tspan></text>
<text fill="#FF5731" xml:space="preserve" style="white-space: pre" font-family="SF Mono" font-size="12.96" font-weight="600" letter-spacing="0em"><tspan x="313.323" y="121.388">40%</tspan></text>
<text fill="#FF7757" xml:space="preserve" style="white-space: pre" font-family="SF Mono" font-size="12.96" font-weight="600" letter-spacing="0em"><tspan x="363.723" y="121.388">80%</tspan></text>
<text fill="#600000" xml:space="preserve" style="white-space: pre" font-family="SF Mono" font-size="12.96" font-weight="600" letter-spacing="0em"><tspan x="405.483" y="121.388">90%</tspan></text>
<text fill="black" xml:space="preserve" style="white-space: pre" font-family="SF Mono" font-size="12.96" font-weight="600" letter-spacing="0em"><tspan x="447.243" y="121.388">99%</tspan></text>
<text fill="black" xml:space="preserve" style="white-space: pre" font-family="SF Mono" font-size="12.96" font-weight="600" letter-spacing="0em"><tspan x="487.563" y="121.388">70%</tspan></text>
<text fill="black" xml:space="preserve" style="white-space: pre" font-family="SF Mono" font-size="12.96" font-weight="600" letter-spacing="0em"><tspan x="533.643" y="121.388">99%</tspan></text>
<text fill="black" xml:space="preserve" style="white-space: pre" font-family="SF Mono" font-size="12.96" font-weight="600" letter-spacing="0em"><tspan x="581.163" y="121.388">99%</tspan></text>
<text fill="#878787" xml:space="preserve" style="white-space: pre" font-family="Iowan Old Style BT" font-size="18.72" letter-spacing="0em"><tspan x="161.89" y="166.754">teacher&#x2019;s conditional per-token probability</tspan></text>
<path d="M63.7199 130.16V141.68H594.36V130.16" stroke="black" stroke-opacity="0.1" stroke-width="1.44"/>
<text fill="#878787" xml:space="preserve" style="white-space: pre" font-family="Iowan Old Style BT" font-size="18.72" font-style="italic" letter-spacing="0em"><tspan x="51.1575" y="48.5934">student trajectory</tspan></text>
<defs>
<filter id="filter0_d_861_19346" x="49.32" y="61.7602" width="36.04" height="48.9602" filterUnits="userSpaceOnUse" color-interpolation-filters="sRGB">
<feFlood flood-opacity="0" result="BackgroundImageFix"/>
<feColorMatrix in="SourceAlpha" type="matrix" values="0 0 0 0 0 0 0 0 0 0 0 0 0 0 0 0 0 0 127 0" result="hardAlpha"/>
<feOffset dy="1.44"/>
<feGaussianBlur stdDeviation="1.44"/>
<feComposite in2="hardAlpha" operator="out"/>
<feColorMatrix type="matrix" values="0 0 0 0 0 0 0 0 0 0 0 0 0 0 0 0 0 0 0.04 0"/>
<feBlend mode="normal" in2="BackgroundImageFix" result="effect1_dropShadow_861_19346"/>
<feBlend mode="normal" in="SourceGraphic" in2="effect1_dropShadow_861_19346" result="shape"/>
</filter>
<filter id="filter1_d_861_19346" x="88.2" y="61.7602" width="41.04" height="48.9602" filterUnits="userSpaceOnUse" color-interpolation-filters="sRGB">
<feFlood flood-opacity="0" result="BackgroundImageFix"/>
<feColorMatrix in="SourceAlpha" type="matrix" values="0 0 0 0 0 0 0 0 0 0 0 0 0 0 0 0 0 0 127 0" result="hardAlpha"/>
<feOffset dy="1.44"/>
<feGaussianBlur stdDeviation="1.44"/>
<feComposite in2="hardAlpha" operator="out"/>
<feColorMatrix type="matrix" values="0 0 0 0 0 0 0 0 0 0 0 0 0 0 0 0 0 0 0.04 0"/>
<feBlend mode="normal" in2="BackgroundImageFix" result="effect1_dropShadow_861_19346"/>
<feBlend mode="normal" in="SourceGraphic" in2="effect1_dropShadow_861_19346" result="shape"/>
</filter>
<filter id="filter2_d_861_19346" x="132.84" y="61.7602" width="36.04" height="48.9602" filterUnits="userSpaceOnUse" color-interpolation-filters="sRGB">
<feFlood flood-opacity="0" result="BackgroundImageFix"/>
<feColorMatrix in="SourceAlpha" type="matrix" values="0 0 0 0 0 0 0 0 0 0 0 0 0 0 0 0 0 0 127 0" result="hardAlpha"/>
<feOffset dy="1.44"/>
<feGaussianBlur stdDeviation="1.44"/>
<feComposite in2="hardAlpha" operator="out"/>
<feColorMatrix type="matrix" values="0 0 0 0 0 0 0 0 0 0 0 0 0 0 0 0 0 0 0.04 0"/>
<feBlend mode="normal" in2="BackgroundImageFix" result="effect1_dropShadow_861_19346"/>
<feBlend mode="normal" in="SourceGraphic" in2="effect1_dropShadow_861_19346" result="shape"/>
</filter>
<filter id="filter3_d_861_19346" x="171.72" y="61.7602" width="39.04" height="48.9602" filterUnits="userSpaceOnUse" color-interpolation-filters="sRGB">
<feFlood flood-opacity="0" result="BackgroundImageFix"/>
<feColorMatrix in="SourceAlpha" type="matrix" values="0 0 0 0 0 0 0 0 0 0 0 0 0 0 0 0 0 0 127 0" result="hardAlpha"/>
<feOffset dy="1.44"/>
<feGaussianBlur stdDeviation="1.44"/>
<feComposite in2="hardAlpha" operator="out"/>
<feColorMatrix type="matrix" values="0 0 0 0 0 0 0 0 0 0 0 0 0 0 0 0 0 0 0.04 0"/>
<feBlend mode="normal" in2="BackgroundImageFix" result="effect1_dropShadow_861_19346"/>
<feBlend mode="normal" in="SourceGraphic" in2="effect1_dropShadow_861_19346" result="shape"/>
</filter>
<filter id="filter4_d_861_19346" x="213.48" y="61.7602" width="36.04" height="48.9602" filterUnits="userSpaceOnUse" color-interpolation-filters="sRGB">
<feFlood flood-opacity="0" result="BackgroundImageFix"/>
<feColorMatrix in="SourceAlpha" type="matrix" values="0 0 0 0 0 0 0 0 0 0 0 0 0 0 0 0 0 0 127 0" result="hardAlpha"/>
<feOffset dy="1.44"/>
<feGaussianBlur stdDeviation="1.44"/>
<feComposite in2="hardAlpha" operator="out"/>
<feColorMatrix type="matrix" values="0 0 0 0 0 0 0 0 0 0 0 0 0 0 0 0 0 0 0.04 0"/>
<feBlend mode="normal" in2="BackgroundImageFix" result="effect1_dropShadow_861_19346"/>
<feBlend mode="normal" in="SourceGraphic" in2="effect1_dropShadow_861_19346" result="shape"/>
</filter>
<filter id="filter5_d_861_19346" x="252.36" y="61.7602" width="40.32" height="48.9602" filterUnits="userSpaceOnUse" color-interpolation-filters="sRGB">
<feFlood flood-opacity="0" result="BackgroundImageFix"/>
<feColorMatrix in="SourceAlpha" type="matrix" values="0 0 0 0 0 0 0 0 0 0 0 0 0 0 0 0 0 0 127 0" result="hardAlpha"/>
<feOffset dy="1.44"/>
<feGaussianBlur stdDeviation="1.44"/>
<feComposite in2="hardAlpha" operator="out"/>
<feColorMatrix type="matrix" values="0 0 0 0 0 0 0 0 0 0 0 0 0 0 0 0 0 0 0.04 0"/>
<feBlend mode="normal" in2="BackgroundImageFix" result="effect1_dropShadow_861_19346"/>
<feBlend mode="normal" in="SourceGraphic" in2="effect1_dropShadow_861_19346" result="shape"/>
</filter>
<filter id="filter6_d_861_19346" x="295.56" y="61.7602" width="59.04" height="48.9602" filterUnits="userSpaceOnUse" color-interpolation-filters="sRGB">
<feFlood flood-opacity="0" result="BackgroundImageFix"/>
<feColorMatrix in="SourceAlpha" type="matrix" values="0 0 0 0 0 0 0 0 0 0 0 0 0 0 0 0 0 0 127 0" result="hardAlpha"/>
<feOffset dy="1.44"/>
<feGaussianBlur stdDeviation="1.44"/>
<feComposite in2="hardAlpha" operator="out"/>
<feColorMatrix type="matrix" values="0 0 0 0 0 0 0 0 0 0 0 0 0 0 0 0 0 0 0.04 0"/>
<feBlend mode="normal" in2="BackgroundImageFix" result="effect1_dropShadow_861_19346"/>
<feBlend mode="normal" in="SourceGraphic" in2="effect1_dropShadow_861_19346" result="shape"/>
</filter>
<filter id="filter7_d_861_19346" x="357.48" y="61.7602" width="36.04" height="48.9602" filterUnits="userSpaceOnUse" color-interpolation-filters="sRGB">
<feFlood flood-opacity="0" result="BackgroundImageFix"/>
<feColorMatrix in="SourceAlpha" type="matrix" values="0 0 0 0 0 0 0 0 0 0 0 0 0 0 0 0 0 0 127 0" result="hardAlpha"/>
<feOffset dy="1.44"/>
<feGaussianBlur stdDeviation="1.44"/>
<feComposite in2="hardAlpha" operator="out"/>
<feColorMatrix type="matrix" values="0 0 0 0 0 0 0 0 0 0 0 0 0 0 0 0 0 0 0.04 0"/>
<feBlend mode="normal" in2="BackgroundImageFix" result="effect1_dropShadow_861_19346"/>
<feBlend mode="normal" in="SourceGraphic" in2="effect1_dropShadow_861_19346" result="shape"/>
</filter>
<filter id="filter8_d_861_19346" x="396.36" y="61.7602" width="41.04" height="48.9602" filterUnits="userSpaceOnUse" color-interpolation-filters="sRGB">
<feFlood flood-opacity="0" result="BackgroundImageFix"/>
<feColorMatrix in="SourceAlpha" type="matrix" values="0 0 0 0 0 0 0 0 0 0 0 0 0 0 0 0 0 0 127 0" result="hardAlpha"/>
<feOffset dy="1.44"/>
<feGaussianBlur stdDeviation="1.44"/>
<feComposite in2="hardAlpha" operator="out"/>
<feColorMatrix type="matrix" values="0 0 0 0 0 0 0 0 0 0 0 0 0 0 0 0 0 0 0.04 0"/>
<feBlend mode="normal" in2="BackgroundImageFix" result="effect1_dropShadow_861_19346"/>
<feBlend mode="normal" in="SourceGraphic" in2="effect1_dropShadow_861_19346" result="shape"/>
</filter>
<filter id="filter9_d_861_19346" x="441" y="61.7602" width="36.04" height="48.9602" filterUnits="userSpaceOnUse" color-interpolation-filters="sRGB">
<feFlood flood-opacity="0" result="BackgroundImageFix"/>
<feColorMatrix in="SourceAlpha" type="matrix" values="0 0 0 0 0 0 0 0 0 0 0 0 0 0 0 0 0 0 127 0" result="hardAlpha"/>
<feOffset dy="1.44"/>
<feGaussianBlur stdDeviation="1.44"/>
<feComposite in2="hardAlpha" operator="out"/>
<feColorMatrix type="matrix" values="0 0 0 0 0 0 0 0 0 0 0 0 0 0 0 0 0 0 0.04 0"/>
<feBlend mode="normal" in2="BackgroundImageFix" result="effect1_dropShadow_861_19346"/>
<feBlend mode="normal" in="SourceGraphic" in2="effect1_dropShadow_861_19346" result="shape"/>
</filter>
<filter id="filter10_d_861_19346" x="479.88" y="61.7602" width="39.04" height="48.9602" filterUnits="userSpaceOnUse" color-interpolation-filters="sRGB">
<feFlood flood-opacity="0" result="BackgroundImageFix"/>
<feColorMatrix in="SourceAlpha" type="matrix" values="0 0 0 0 0 0 0 0 0 0 0 0 0 0 0 0 0 0 127 0" result="hardAlpha"/>
<feOffset dy="1.44"/>
<feGaussianBlur stdDeviation="1.44"/>
<feComposite in2="hardAlpha" operator="out"/>
<feColorMatrix type="matrix" values="0 0 0 0 0 0 0 0 0 0 0 0 0 0 0 0 0 0 0.04 0"/>
<feBlend mode="normal" in2="BackgroundImageFix" result="effect1_dropShadow_861_19346"/>
<feBlend mode="normal" in="SourceGraphic" in2="effect1_dropShadow_861_19346" result="shape"/>
</filter>
<filter id="filter11_d_861_19346" x="521.64" y="61.7602" width="48.04" height="48.9602" filterUnits="userSpaceOnUse" color-interpolation-filters="sRGB">
<feFlood flood-opacity="0" result="BackgroundImageFix"/>
<feColorMatrix in="SourceAlpha" type="matrix" values="0 0 0 0 0 0 0 0 0 0 0 0 0 0 0 0 0 0 127 0" result="hardAlpha"/>
<feOffset dy="1.44"/>
<feGaussianBlur stdDeviation="1.44"/>
<feComposite in2="hardAlpha" operator="out"/>
<feColorMatrix type="matrix" values="0 0 0 0 0 0 0 0 0 0 0 0 0 0 0 0 0 0 0.04 0"/>
<feBlend mode="normal" in2="BackgroundImageFix" result="effect1_dropShadow_861_19346"/>
<feBlend mode="normal" in="SourceGraphic" in2="effect1_dropShadow_861_19346" result="shape"/>
</filter>
<filter id="filter12_d_861_19346" x="572.04" y="61.7602" width="40.32" height="48.9602" filterUnits="userSpaceOnUse" color-interpolation-filters="sRGB">
<feFlood flood-opacity="0" result="BackgroundImageFix"/>
<feColorMatrix in="SourceAlpha" type="matrix" values="0 0 0 0 0 0 0 0 0 0 0 0 0 0 0 0 0 0 127 0" result="hardAlpha"/>
<feOffset dy="1.44"/>
<feGaussianBlur stdDeviation="1.44"/>
<feComposite in2="hardAlpha" operator="out"/>
<feColorMatrix type="matrix" values="0 0 0 0 0 0 0 0 0 0 0 0 0 0 0 0 0 0 0.04 0"/>
<feBlend mode="normal" in2="BackgroundImageFix" result="effect1_dropShadow_861_19346"/>
<feBlend mode="normal" in="SourceGraphic" in2="effect1_dropShadow_861_19346" result="shape"/>
</filter>
</defs>
</svg>
