<svg xmlns="http://www.w3.org/2000/svg" width="184" height="50" fill="none"><path fill="#ed6d0b" d="M10.426 41.09A49 49 0 0 0 19.608 50a49 49 0 0 0 9.183-8.908l-9.183-8.939z"/><path fill="#ed6d0b" d="M6.156 34.715 19.61 21.811l13.484 12.965a47.3 47.3 0 0 0 4.972-12.996c.061-.213.092-.427.122-.67H1.031c1.007 4.758 2.746 9.334 5.125 13.605"/><path fill="#ed6d0b" d="M6.156 34.717a47 47 0 0 0 4.302 6.406l9.152-8.908 9.182 8.939a49.4 49.4 0 0 0 4.271-6.376L19.58 21.813z"/><path fill="#000" d="m19.607 31.942-9.152 8.908c-1.525-1.922-2.868-3.966-4.088-6.101l13.24-12.722 13.27 12.752a45 45 0 0 1-4.087 6.101z"/><path fill="#000" d="m19.61 22.27 13.026 12.538c-1.16 2.013-2.44 3.965-3.874 5.796l-8.908-8.664-.244-.244-.244.244-8.878 8.633a46 46 0 0 1-3.874-5.796zm0-.489L6.156 34.686a47 47 0 0 0 4.302 6.406l9.152-8.908 9.182 8.939a49.4 49.4 0 0 0 4.271-6.376z"/><path fill="#000" d="M39.041 7.322a17.3 17.3 0 0 1-5.003.732A16.81 16.81 0 0 1 19.608 0a16.81 16.81 0 0 1-14.43 8.054c-1.677 0-3.385-.244-5.002-.732A47.6 47.6 0 0 0 .999 21.11h37.158c1.006-4.546 1.28-9.183.884-13.79"/><path fill="#fff" d="M28.792 12.994v-1.586h-.977v-1.13l-1.006-.274h-.092V9.06s-.335.427-1.952.427c-1.526 0-2.41-.489-3.6-.489a1.68 1.68 0 0 0-1.525.672v.396h-.031V9.67a1.65 1.65 0 0 0-1.525-.671c-1.22 0-2.105.488-3.6.488-1.586 0-1.892-.427-1.892-.427v1.006h-.06l-1.099.244v1.129h-.976v1.586h.976v2.563h-.976v1.586h.976v1.953a21.5 21.5 0 0 0 3.142.244c1.77 0 2.807-.244 3.966-.275v.488a2.6 2.6 0 0 0 1.099.244c.396 0 .762-.091 1.128-.244v-.488c1.16.03 2.166.275 3.966.275 1.037-.03 2.075-.092 3.112-.244v-1.953h.976v-1.586h-.976v-2.563h.946z"/><path fill="#000" d="M26.87 9.916v-1.22L26.563 9s-.366.366-1.83.366l-1.983-.274-1.617-.214a2 2 0 0 0-1.525.58 1.83 1.83 0 0 0-1.526-.58l-1.616.244-1.983.275c-1.434 0-1.74-.336-1.74-.336l-.304-.366v1.282l-1.19.244v9.09l.152.031c1.038.153 2.106.244 3.143.244a39 39 0 0 0 3.783-.274v.427l.091.06a3 3 0 0 0 1.16.245 3.2 3.2 0 0 0 1.19-.244l.09-.061v-.427a39 39 0 0 0 3.783.274c1.068-.03 2.105-.091 3.143-.244l.152-.03v-9.06zm-7.078-.092a1.52 1.52 0 0 1 1.373-.58l1.556.214 2.044.275a4.1 4.1 0 0 0 1.8-.306v8.603c-.58.183-1.19.275-1.8.275l-1.983-.275-1.617-.213a2.05 2.05 0 0 0-1.373.427zm-7.047-.366a4.1 4.1 0 0 0 1.708.275l2.044-.275 1.556-.214a1.52 1.52 0 0 1 1.373.58v8.42a2.05 2.05 0 0 0-1.373-.427l-1.617.244-1.983.274c-1.434 0-1.739-.335-1.739-.335 0-.061.03-7.962.03-8.542m14.887 9.549c-.976.152-1.952.213-2.96.244a43 43 0 0 1-3.934-.275l-.183-.03v.58a2.45 2.45 0 0 1-1.86 0v-.58l-.184.03a43 43 0 0 1-3.936.275c-.976 0-1.983-.092-2.959-.244v-8.512c.153-.03.61-.122.854-.183v7.718c.092.183.427.58 2.044.58l2.044-.275 1.556-.213c.519-.061 1.068.152 1.373.58l.06-.031h.245l.06.03c.337-.427.855-.64 1.374-.58l1.556.214 2.044.275c1.647 0 2.043-.427 2.074-.488l.03-7.87c.214.06.61.182.733.213v8.542z"/><path fill="#000" d="M15.125 10.952c-.122 0-.214.06-.244.183l-.55 1.19-.03.03c-.03 0-.03-.03-.061-.061-.03-.03-.091-.214-.214-.55l-.183-.396c-.06-.152-.122-.244-.122-.274-.06-.092-.122-.122-.213-.122v-.061h.763v.06c-.062 0-.214 0-.214.092v.092l.366.854.305-.702c.03-.06.03-.122.03-.183 0-.091-.06-.122-.213-.122v-.06h.58zq.045 0 0 0"/><path fill="#000" d="M16.65 12.325h-1.373v-.06a.6.6 0 0 0 .214-.062.6.6 0 0 0 .06-.213v-.824c0-.153-.09-.153-.243-.183v-.061h1.251c.03 0 .06 0 .06.03l.031.336h-.06c-.062-.092-.123-.183-.214-.244-.03-.03-.092-.03-.122-.03h-.336l-.03.06v.458h.06c.061 0 .122 0 .153-.03a.7.7 0 0 0 .153-.092c0-.03.03-.091.03-.122h.091v.58h-.06c0-.123-.03-.214-.123-.245-.06-.03-.091-.03-.152-.03h-.091v.366c0 .061 0 .122.03.183l.091.092h.336c.061 0 .092 0 .153-.03.091-.092.183-.184.213-.306h.061v.366c-.122.03-.122.061-.183.061"/><path fill="#000" d="M18.356 11.349h-.03c-.03-.061-.061-.153-.092-.214-.06-.091-.152-.122-.274-.152h-.153v1.068c0 .152.061.152.244.183v.06h-.793v-.06c.214-.03.244-.061.244-.122v-1.129c-.06 0-.152 0-.213.03-.122.061-.244.183-.275.306h-.06v-.367c0-.03 0-.03.03-.03h1.403v.427c0-.03 0 0-.03 0"/><path fill="#000" d="M15.064 13.575h-.03c-.03-.061-.061-.153-.092-.214-.06-.091-.152-.122-.274-.152h-.153v1.067c0 .153.092.153.244.184v.06h-.793v-.06c.214-.031.244-.062.275-.123V13.21a.5.5 0 0 0-.214.03c-.122.061-.244.183-.275.305h-.06v-.396c0-.03 0-.03.03-.03h1.403v.06zc.03 0 .03-.03 0 0"/><path fill="#000" d="M16.713 14.551H15.34v-.092c.06 0 .152-.03.213-.06.03-.031.03-.092.061-.214v-.824c0-.152-.06-.152-.244-.183v-.03s0-.03.03-.03h1.221c.03 0 .061 0 .061.03l.03.335h-.06c-.061-.091-.122-.183-.214-.244-.03-.03-.091-.03-.122-.03h-.335s-.031 0-.031.06v.458h.061c.061 0 .122 0 .152-.03a.6.6 0 0 0 .153-.092c0-.03.03-.091.03-.122h.092c0 .061-.03.183-.03.305v.275h-.061c0-.122-.03-.214-.123-.244-.06-.03-.091-.03-.152-.03h-.091v.365c0 .061 0 .122.03.184 0 .03.061.06.091.091h.336c.061 0 .092 0 .153-.03.091-.092.183-.184.244-.306h.06v.367c-.121.091-.152.091-.182.091"/><path fill="#000" d="M17.689 14.58a.7.7 0 0 1-.336-.09h-.06c-.031 0-.062.03-.092.06-.03 0-.061 0-.092-.03 0-.03.03-.122.03-.183v-.244c0-.03.031-.03.062-.03h.03c.03.09.092.182.122.274.092.091.183.152.305.152.092 0 .153-.03.244-.06q.092-.046.092-.184c0-.06 0-.091-.03-.122a.17.17 0 0 0-.153-.091c-.061-.03-.274-.092-.366-.122-.061-.03-.153-.092-.183-.153q-.092-.09-.092-.274c0-.214.183-.397.427-.397h.031c.122 0 .244.03.336.091l.091-.091c.03 0 .061 0 .061.03 0 .062-.03.123-.03.184 0 .03.03.182.03.213-.03 0-.03.03-.06.03h-.031c-.03-.06-.061-.182-.122-.243-.061-.092-.183-.123-.275-.123-.122 0-.244.092-.244.214s.091.183.183.214a.44.44 0 0 0 .213.06c.092.031.153.062.214.092a.4.4 0 0 1 .244.366.554.554 0 0 1-.549.458q.045 0 0 0"/><path fill="#000" d="M15.642 16.778H14.27v-.06c.06 0 .152-.031.213-.062a.6.6 0 0 0 .061-.213v-.824c0-.152-.091-.152-.244-.183v-.061h1.251c.03 0 .06 0 .06.03l.031.336h-.06c-.062-.091-.123-.183-.214-.244-.03-.03-.092-.03-.122-.03h-.336l-.03.06v.458h.06c.062 0 .123 0 .153-.03a.7.7 0 0 0 .153-.092c0-.03.03-.091.03-.122h.091v.58h-.06c0-.122-.03-.214-.122-.244-.061-.03-.092-.03-.153-.03h-.091v.365c0 .061 0 .122.03.183l.092.092h.335c.061 0 .092 0 .153-.03.091-.092.183-.184.213-.306h.092v.366c-.153.061-.153.061-.214.061"/><path fill="#000" d="M17.717 15.435c-.152 0-.274.092-.274.305v1.038c-.03 0-.03.03-.062.03 0 0-.03 0-.03-.03l-1.007-1.068v.762c0 .061.03.122.061.153.061.03.122.061.183.061v.061h-.67v-.061c.09 0 .152-.03.213-.091.03-.061.03-.122.03-.183v-.733a.23.23 0 0 0-.06-.152c-.031-.03-.031-.061-.062-.061-.06-.03-.091-.061-.152-.061v-.061h.396c.03 0 .03.03.03.03l.733.824c.061.06.122.152.183.183v-.732c0-.061-.03-.092-.03-.153-.031-.03-.153-.06-.245-.06v-.061h.641v.03c.122 0 .122 0 .122.03"/><path fill="#000" d="M22.414 10.95c-.153 0-.275.092-.275.306v1.037c-.03 0-.03.03-.06.03 0 0-.031 0-.031-.03l-1.007-1.067v.762c0 .061.03.122.061.153.061.03.122.06.183.06v.061h-.61v-.06c.092 0 .153-.03.214-.092.03-.06.03-.122.03-.183v-.732a.23.23 0 0 0-.06-.153c-.031-.03-.031-.06-.062-.06-.06-.031-.091-.062-.152-.062v-.06h.396c.03 0 .03.03.061.03l.732.824c.061.06.122.152.183.183v-.733c0-.06-.03-.091-.03-.152-.03-.03-.153-.061-.244-.061v-.061h.64v.03c.03 0 .03.03.03.03"/><path fill="#000" d="M23.912 12.14a.72.72 0 0 1-1.007 0 .795.795 0 0 1 0-1.067.72.72 0 0 1 .488-.214c.122 0 .275.03.366.092.214.122.336.366.336.64.03.184-.061.397-.183.55m-.244-1.067a.36.36 0 0 0-.275-.153.32.32 0 0 0-.274.153.78.78 0 0 0-.122.518c0 .184.03.336.122.489a.32.32 0 0 0 .274.152.34.34 0 0 0 .305-.183q.092-.229.092-.457a.78.78 0 0 0-.122-.52"/><path fill="#000" d="M25.922 10.952c-.123 0-.214.06-.245.183l-.549 1.19-.03.03c-.03 0-.03-.03-.061-.061-.03-.03-.092-.214-.214-.55l-.183-.396c-.06-.152-.122-.244-.122-.274-.06-.092-.122-.122-.213-.122v-.061h.762l.03.03v.03c-.06 0-.213 0-.213.092v.092l.366.854.305-.702c.031-.06.031-.122.031-.183 0-.091-.061-.122-.214-.122v-.06h.58s0 .03-.03.03"/><path fill="#000" d="M21.959 13.575h-.03c-.031-.061-.062-.153-.092-.214a.32.32 0 0 0-.275-.152h-.152v1.067c0 .153.091.153.244.184v.06h-.794v-.06c.214-.031.245-.062.275-.123V13.21c-.061 0-.152 0-.213.03-.123.061-.245.183-.275.305h-.061v-.396c0-.03 0-.03.03-.03h1.404v.06z"/><path fill="#000" d="M23.665 14.55h-.733v-.06c.153 0 .183-.031.183-.092s-.03-.122-.03-.183c-.03-.092-.061-.153-.061-.183 0 0 0-.03-.03-.03h-.458a.5.5 0 0 0-.092.274v.091c0 .061.03.092.214.092v.06h-.58v-.06c.092 0 .153-.03.214-.092l.183-.366a5 5 0 0 0 .213-.518c.061-.123.092-.153.092-.214a.5.5 0 0 0 .06-.153c0-.03.031-.03.062-.03.03 0 .06 0 .06.03 0 .031.031.031.031.062.092.182.153.365.244.61.061.122.092.213.122.335.03.092.061.153.092.214.06.122.152.122.213.122v.091m-.916-1.129c-.03.062-.091.184-.091.245-.061.183-.092.244-.122.274h.427c-.03-.122-.153-.366-.214-.518"/><path fill="#000" d="M25.864 14.553h-.732v-.06h.153q.09-.046.091-.184v-1.037l-.305.671c-.03.061-.06.153-.091.244a1.1 1.1 0 0 0-.122.336c0 .03-.031.03-.061.03-.031 0-.031 0-.031-.03a.5.5 0 0 0-.091-.183l-.489-1.037v.945c0 .214.092.305.275.305v.061h-.641v-.06a.6.6 0 0 0 .214-.062c.03-.03.06-.091.06-.244v-.732c0-.122-.03-.152-.06-.213-.061-.031-.122-.031-.183-.031v-.061h.579l.031.03.427.977.061-.183c.061-.153.153-.397.305-.641a.7.7 0 0 1 .092-.153h.549v.061c-.061 0-.153 0-.214.092-.03.03-.03.061-.03.183v.702c0 .274.06.305.091.305.061 0 .092.03.153.03v.03c-.03-.121-.03-.121-.03-.09"/><path fill="#000" d="M21.928 15.802h-.031c-.03-.06-.061-.152-.091-.213-.062-.092-.153-.123-.275-.153h-.153v1.068c0 .152.092.152.244.183v.06h-.793v-.06c.214-.03.244-.061.275-.122v-1.129a.5.5 0 0 0-.214.03c-.122.062-.244.184-.274.306h-.061v-.367c0-.03 0-.03.03-.03h1.403v.061z"/><path fill="#000" d="M23.695 15.436c-.122 0-.214.061-.244.183l-.55 1.19-.03.03c-.03 0-.03-.03-.06-.06 0-.031-.092-.214-.214-.55l-.183-.396c-.061-.153-.122-.245-.122-.275-.061-.091-.122-.122-.214-.122v-.061h.732l.03.03v.031c-.06 0-.213 0-.213.091v.092l.366.854.305-.701c.03-.061.03-.122.03-.183 0-.092-.06-.123-.213-.123v-.06h.58z"/><path fill="#000" d="M25.892 16.777h-.733v-.061h.153q.091-.046.091-.183v-1.007l-.305.671c-.03.061-.06.152-.122.244-.06.153-.091.275-.122.336 0 .03-.03.03-.06.03-.031 0-.031 0-.031-.03-.03-.092-.061-.153-.061-.183l-.488-1.038v.946c0 .214.091.305.274.305v.061h-.64v-.06c.06 0 .152-.031.213-.062a.6.6 0 0 0 .061-.244v-.732c0-.122 0-.153-.06-.214-.062-.03-.123-.03-.184-.03v-.061h.58l.03.03.427.977.092-.184c.091-.213.183-.427.305-.64a.7.7 0 0 1 .091-.153h.55l.03.03v.031c-.06 0-.152 0-.213.092-.03.03-.03.06-.03.183v.702c0 .274.06.305.09.305.031 0 .092.03.153.03v.03c-.091-.152-.091-.121-.091-.121"/><path fill="#000" d="M182.759 8.208a.6.6 0 0 0-.061-.244h-.397c-.915 0-1.495.03-3.172.03-.58 0-1.404-.03-1.617-.03h-.488c-.061.03-.061.244-.061.305 0 .122.03.213.091.305a8.3 8.3 0 0 1 1.892.518c.335.58.549 1.22.549 1.892.03.274.03.549.03 1.312v3.843c0 .275 0 .519-.03.794-.305-.336-.763-1.007-1.495-1.83l-6.162-6.804c-.092-.091-.184-.183-.275-.244-.153 0-.397-.03-.549-.03-1.19 0-3.325-.061-3.63-.061-.031.091-.061.152-.061.244 0 .122.03.244.061.366a2.6 2.6 0 0 1 1.372.701c.366.336.702.732.977 1.16.061.183.091.396.061.58 0 .945-.061 2.287-.061 3.599v3.752c0 .458-.031.946-.122 1.404a3.94 3.94 0 0 1-1.922.945 1.1 1.1 0 0 0-.061.336c0 .06.03.244.061.244h.335c.366 0 1.22-.061 1.77-.061.823 0 1.372.061 2.105.061h1.098c.061-.03.091-.244.091-.305 0-.092-.03-.214-.061-.305a3.5 3.5 0 0 1-2.196-1.129 11.6 11.6 0 0 1-.244-2.288c0-.58-.031-1.403-.031-2.471 0-1.464.031-2.715.031-3.356.122.122.244.305.335.397l8.512 9.549a1 1 0 0 0 .518.122c.061 0 .153 0 .214-.031a2 2 0 0 0 .152-.824c0-.518-.03-1.098-.03-1.372v-7.688c0-2.288 1.098-2.96 2.349-2.99.122-.152.122-.274.122-.396m-21.08 5.857c0 2.776-.763 5.217-1.831 6.101-.549.458-1.25.671-1.952.671a2.75 2.75 0 0 1-2.441-1.22c-.762-1.464-1.128-3.112-1.098-4.79 0-2.562.671-4.575 1.831-5.552.518-.457 1.22-.701 1.922-.701.976 0 1.921.457 2.501 1.281.732.915 1.068 2.319 1.068 4.21m3.325.366a6.22 6.22 0 0 0-3.264-5.735 7.03 7.03 0 0 0-3.508-.946c-2.502.03-4.851 1.312-6.193 3.417a7.03 7.03 0 0 0-1.068 3.722c0 2.105.976 4.088 2.624 5.4a6.9 6.9 0 0 0 4.209 1.311c.946 0 1.892-.183 2.807-.519a6.7 6.7 0 0 0 2.563-1.738 7.12 7.12 0 0 0 1.83-4.912m-16.169-2.318V8.36c0-.274-.122-.335-.396-.335-.549 0-3.447.06-6.407.06-2.288 0-4.179-.03-5.216-.03h-1.373c-.244 0-.305.061-.305.305v3.508a.35.35 0 0 0 .305.061c.122 0 .275 0 .397-.03.823-1.678 1.586-2.563 2.562-3.081.549-.061 1.648-.061 1.922-.061.031.213.031.854.061 1.617.031 1.311.031 1.891.031 5.033 0 2.715-.031 3.936-.061 4.21-.061.519.03.915-2.197 1.007-.061.122-.061.274-.061.427 0 .091 0 .183.031.305h.701c.671 0 2.288-.061 2.959-.061.519 0 2.258.061 3.356.061h.519c.061-.122.061-.244.061-.397 0-.122-.031-.244-.061-.335a3.7 3.7 0 0 1-1.892-.336 4.2 4.2 0 0 1-.152-1.372c-.031-1.983-.031-2.746-.031-4.058 0-1.708.031-2.868.031-6.04.244 0 .854-.03 1.403 0a3.64 3.64 0 0 1 2.197 1.403c.396.64.732 1.312.976 2.014.091.03.213.03.305.03.091-.091.213-.122.335-.152m-15.863 5.979c0-.183 0-.366-.031-.519-.091-.06-.183-.06-.274-.06-.122 0-.275 0-.397.03a7.1 7.1 0 0 1-2.013 2.806 3 3 0 0 1-1.373.214h-1.495c-.396 0-.823-.03-1.22-.092-.275-.06-.58-.488-.702-.793a2.2 2.2 0 0 1-.213-1.16v-4.026h.671c.397 0 .763.091 1.129.244s.64.427.823.763c.153.488.275 1.006.305 1.525.153.061.306.092.489.061q.183 0 .366-.091c0-.489-.122-1.83-.122-2.563 0-.915.122-2.196.183-2.837-.122-.061-.244-.092-.366-.061-.153 0-.336 0-.489.06-.061.245-.244 1.038-.305 1.1a2.17 2.17 0 0 1-1.25.945c-.336.091-.702.122-1.068.152h-.366v-1.708c0-1.77.03-2.35.061-2.685.03-.213.061-.457.061-.64.366-.03.732-.061 1.098-.03 1.068 0 1.556.03 1.739.03q.64 0 1.19.366a7.7 7.7 0 0 1 1.769 2.288c.122.03.244.03.397.03.122 0 .122-.03.274-.122 0-1.129-.061-2.562-.122-3.05-.03-.183-.061-.244-.427-.244-.152 0-.854-.03-1.586-.03-1.037 0-1.465.03-3.081.03-.855 0-2.654.03-3.417.03-1.098 0-2.044-.03-2.532-.03h-.61a.5.5 0 0 0-.092.305q0 .183.092.366c.457.03.915.091 1.342.213.397.275.641.702.671 1.19.031.397.061 1.464.061 2.288v3.783c0 .762-.03 1.891-.03 2.349a5.6 5.6 0 0 1-.397 1.739 5 5 0 0 1-1.647.274.94.94 0 0 0-.092.397c0 .122.031.244.092.336h.61c.579 0 2.776-.062 3.264-.062.458 0 1.342.031 2.41.031.58 0 2.319.122 6.04.122.153 0 .336 0 .488-.03a.36.36 0 0 0 .061-.306c.031-.366.031-1.433.031-2.928m-15.589.64a.6.6 0 0 0-.641-.427c-.03 0-.091.03-.122.03-1.098 1.557-2.318 2.167-3.691 2.167a4.03 4.03 0 0 1-3.722-2.44 10.4 10.4 0 0 1-.579-3.357 8.4 8.4 0 0 1 .549-3.233c.823-2.136 1.983-2.807 3.417-2.807a3.83 3.83 0 0 1 2.959 1.648c.427.701.732 1.433.945 2.227.122.03.275.06.397.06a.73.73 0 0 0 .427-.152c-.03-.213-.213-1.617-.213-2.074 0-.55.152-1.465.152-1.8a1.9 1.9 0 0 0-.702-.214 4 4 0 0 0-.64.763 6.2 6.2 0 0 0-4.088-1.312 6.2 6.2 0 0 0-4.607 1.83c-1.342 1.373-2.044 3.265-1.983 5.187a6.75 6.75 0 0 0 2.593 5.49 7.2 7.2 0 0 0 4.302 1.221c2.257 0 3.874-.854 4.698-1.983q.366-.366.549-.824M103.075 8.208a.6.6 0 0 0-.061-.244h-.427c-.915 0-1.495.03-3.172.03-.58 0-1.404-.03-1.617-.03h-.488c-.061.03-.061.244-.061.305 0 .122.03.213.091.305.64.091 1.281.274 1.892.518.335.58.518 1.22.518 1.892.03.274.03.549.03 1.312v3.843c0 .275 0 .519-.03.794-.305-.336-.763-1.007-1.495-1.83l-6.131-6.804c-.092-.091-.183-.183-.275-.244-.153 0-.397-.03-.55-.03-1.189 0-3.324-.061-3.63-.061-.03.091-.06.152-.06.244 0 .122.03.244.06.366a2.6 2.6 0 0 1 1.373.701c.366.336.702.732.977 1.16.06.183.091.396.06.58 0 .945-.06 2.287-.06 3.599v3.752c0 .458-.03.946-.123 1.404a3.94 3.94 0 0 1-1.921.945c-.03.122-.061.214-.061.336 0 .06.03.244.06.244h.336c.366 0 1.22-.061 1.77-.061.823 0 1.372.061 2.105.061h1.098c.06-.03.091-.244.091-.305 0-.092-.03-.214-.06-.305-.855-.092-1.618-.519-2.197-1.129a11.7 11.7 0 0 1-.244-2.288c0-.58-.03-1.403-.03-2.471 0-1.464.03-2.715.03-3.356.122.122.244.305.335.397l8.481 9.549c.153.091.336.122.519.122.061 0 .152 0 .213-.031.122-.275.153-.55.153-.824 0-.518-.031-1.098-.031-1.372v-7.688c0-2.288 1.099-2.96 2.349-2.99.153-.152.183-.274.183-.396M84.863 20.959c0-.122-.03-.244-.061-.366-.458-.03-.915-.091-1.373-.152a2.96 2.96 0 0 1-.64-1.403c-.031-.885-.031-2.716-.031-4.424v-4.515c-.03-.366.092-.702.336-1.007.488-.305 1.067-.457 1.647-.488.03-.122.06-.244.06-.335a.6.6 0 0 0-.09-.305h-.52c-.762 0-2.562.091-3.202.091-.397 0-2.197-.06-2.99-.06h-.397a.6.6 0 0 0-.091.304c0 .122 0 .244.03.336.488 0 .977.091 1.434.274.427.397.64.976.61 1.556.03.336.03 1.098.061 2.807.03.915.03 2.196.03 3.264 0 .518-.03 1.739-.06 2.38-.03.366-.092.762-.244 1.098-.214.183-.458.518-1.8.61-.03.122-.061.244-.061.396s.03.214.03.306h.305c.733 0 2.563-.092 3.54-.092.274 0 2.196.061 2.806.061h.61c.03-.122.06-.214.06-.336M70.098 11.38c0 1.13-.763 2.44-1.678 2.654-.488.122-1.007.153-1.526.153-.213 0-.457 0-.67-.03l-.031-1.556V9.184a.6.6 0 0 1 .122-.397c.244-.091.519-.122.763-.122 1.433 0 2.074.122 2.562 1.007.336.518.488 1.098.458 1.708m5.338 9.61a.94.94 0 0 0-.091-.397c-.427 0-.824-.06-1.22-.244-.123-.152-.214-.305-.305-.457a16 16 0 0 0-.794-2.105 6.35 6.35 0 0 0-1.373-2.197c-.427-.274-.884-.457-1.372-.61-.305-.122-.519-.213-.763-.305.244-.061.488-.091.763-.122 1.372-.183 1.678-.397 2.013-.671.732-.58 1.16-1.464 1.129-2.38.03-1.495-.915-2.837-2.288-3.355a10.7 10.7 0 0 0-2.197-.214c-1.372 0-3.325.122-4.24.122-.275 0-1.891-.03-2.532-.03-.275 0-.976-.03-1.098-.03a.7.7 0 0 0-.092.335c0 .122 0 .213.03.335.306.03.885.122 1.19.153.336.244.61.61.763 1.006a48 48 0 0 1 .122 4.699c0 1.89.03 4.057-.06 4.759 0 .518-.306.976-.764 1.22-.335.06-.701.091-1.037.122a.8.8 0 0 0-.091.366c0 .091.03.213.06.305.275 0 3.082-.061 3.661-.061 1.19 0 2.166.061 3.234.061.03-.092.061-.183.061-.275 0-.122-.03-.274-.06-.396-.367-.03-.824-.153-1.038-.183a1.37 1.37 0 0 1-.793-1.312l-.03-4.24c.152-.03.304-.03.487-.03.336 0 .672.121.977.304a3.65 3.65 0 0 1 1.464 1.342c.64 1.251 1.007 2.563 1.16 3.966.06.397.213.732.548.763.153.03 1.13.061 1.83.061h2.624a.4.4 0 0 0 .122-.305m-19.982-9.518a2.95 2.95 0 0 1-.945 2.288 3.04 3.04 0 0 1-1.922.488c-.275 0-.519 0-.793-.03-.153-.031-.244-.031-.244-.123l.03-5.4a6.3 6.3 0 0 1 1.068-.09c1.25 0 2.013.304 2.38 1.097.304.55.427 1.13.427 1.77m3.295.06c.03-1.341-.763-2.592-1.983-3.202a9.3 9.3 0 0 0-3.294-.427c-1.404 0-3.63.122-4.607.122-.671 0-1.708-.061-2.288-.061a.5.5 0 0 0-.091.305c0 .122 0 .244.06.366.336.122.916.213 1.282.305.305.274.457.64.488 1.037.06.64.091 1.464.091 2.868 0 3.874-.03 5.918-.06 6.376-.062.61-.489 1.098-1.038 1.311a6.5 6.5 0 0 1-1.068.183c-.03.122-.03.244-.03.397 0 .091 0 .183.061.275.58 0 2.319-.061 2.99-.061 1.647 0 3.325.06 3.996.06h.458c.06-.091.06-.183.06-.305s0-.213-.03-.335c-.61 0-1.22-.214-1.739-.58-.244-.305-.396-.701-.366-1.098l-.06-4.057c1.097.06 2.287.122 2.928.122a7.3 7.3 0 0 0 2.135-.336c1.282-.58 2.136-1.86 2.105-3.264"/><path fill="#000" d="M183.063 28.737c0-.122-.061-.152-.122-.214-.762 0-1.739.061-2.135.061-.946 0-2.075-.06-2.563-.06-.061.121-.061.121-.061.213 0 .061 0 .153.031.214.518.122 1.311.244 1.464.488.122.213.183.457.153.701 0 .244-.031.458-.122.671-.153.458-.519 1.19-1.007 2.197-.854 1.708-1.373 2.776-1.678 3.203-.488-.793-1.556-2.928-1.8-3.508l-1.037-2.258c-.061-.152-.061-.335-.061-.488s0-.335.061-.488c.152-.335.732-.366 1.525-.457a.9.9 0 0 0 .061-.275c0-.122-.061-.091-.122-.183h-.335c-1.221 0-.855.061-2.99.061-.885 0-1.983-.061-2.136-.061-.061.122-.122.152-.122.274 0 .092.031.153.061.214 1.221.305 1.587.519 1.739.763l3.234 6.315c.244.427.427.915.58 1.372.122.733.183 1.465.152 2.197a1.6 1.6 0 0 1-.579 1.434 8 8 0 0 1-1.465.244.35.35 0 0 0-.091.244c0 .06.03.152.061.213.945 0 1.922-.03 2.471-.03.396 0 .976.03 2.074.03.641.03 1.098.03 1.434.03a.35.35 0 0 0 .092-.243.6.6 0 0 0-.061-.244 4.6 4.6 0 0 1-1.587-.366 1.47 1.47 0 0 1-.488-1.19l-.152-2.776c0-.153.03-.305.061-.427.061-.183.122-.366.213-.519l2.837-5.613a3.8 3.8 0 0 1 1.19-1.22 4.5 4.5 0 0 1 1.19-.366c0 .03.03-.062.03-.153m-14.857 3.813v-3.569c0-.275-.122-.336-.396-.336-.549 0-3.081.061-6.04.061-2.288 0-3.814-.03-4.851-.03h-1.373c-.244 0-.305.061-.305.305v3.325c.061.061.153.061.214.061s.152 0 .213-.03c.702-1.587 1.098-2.44 2.319-3.081.549-.061 2.471-.061 2.776-.061.03.213.03.854.061 1.616.03 1.312.03 2.044.03 5.187 0 2.715-.03 4.088-.061 4.393-.061.518.031.915-2.196 1.006-.061.092-.061.214-.061.305 0 .061 0 .153.03.214h.702c.671 0 1.586-.061 2.258-.061.518 0 1.555.06 2.654.06h.518a.9.9 0 0 0 .061-.274.9.9 0 0 0-.061-.274 3.67 3.67 0 0 1-1.891-.336 4.2 4.2 0 0 1-.153-1.373c-.03-1.983-.03-2.928-.03-4.24 0-1.708.03-3.02.03-6.193.244 0 1.617-.03 2.166 0a3.3 3.3 0 0 1 2.075 1.403q.594.916.823 2.014a.9.9 0 0 0 .275.03c.061-.06.152-.091.213-.122m-15.314 9.091a.6.6 0 0 0-.061-.244c-.274-.03-1.037-.091-1.373-.152a2.96 2.96 0 0 1-.64-1.404c-.031-.884-.031-2.898-.031-4.606v-4.668c0-.366.092-.701.336-1.006.488-.305 1.067-.458 1.647-.488a.6.6 0 0 0 .061-.245.28.28 0 0 0-.091-.213h-.519c-.763 0-1.891.091-2.502.091-.396 0-1.494-.06-2.288-.06h-.396a.35.35 0 0 0-.092.244c0 .091.031.152.031.244.488 0 .976.091 1.434.244.427.396.64.976.61 1.555.03.336.03 1.282.061 2.99.03.915.03 2.166.03 3.234 0 .549-.03 1.922-.061 2.562-.03.367-.091.763-.244 1.099-.213.183-.457.518-1.8.61-.03.091-.061.183-.061.274 0 .153.031.153.031.244h.305c.732 0 1.891-.091 2.837-.091.275 0 1.495.06 2.105.06h.61c.031-.121.061-.182.061-.274m-9.091-3.386a3.44 3.44 0 0 0-2.074-3.234c-.641-.305-1.343-.58-2.044-.732a13.2 13.2 0 0 1-2.654-1.007 2.26 2.26 0 0 1-1.099-2.013c0-1.19 1.19-2.166 2.593-2.166 1.007 0 1.953.488 2.533 1.281a8.7 8.7 0 0 1 1.128 2.105c.061.03.122.03.183.03a.5.5 0 0 0 .397-.182c-.092-.55-.122-1.099-.153-1.648.031-.488.061-.976.153-1.433a.56.56 0 0 0-.549-.244 3.8 3.8 0 0 0-.732.67 4.54 4.54 0 0 0-3.143-1.128c-2.257 0-3.874 1.525-3.874 3.508.031.732.244 1.434.671 2.014a3.97 3.97 0 0 0 1.8 1.342c.519.214 2.929.946 3.264 1.068 1.465.58 2.014 1.067 2.014 2.38a2.83 2.83 0 0 1-.824 1.86c-.519.58-1.251.915-2.044.854-1.19 0-2.318-.488-3.081-1.372a8.6 8.6 0 0 1-1.251-2.471c-.091-.031-.183-.031-.244-.031a.46.46 0 0 0-.335.122c0 .244.061 1.464.061 1.83 0 .55-.092 1.099-.214 1.648.122.213.336.366.58.366.274-.275.579-.458.915-.58a.73.73 0 0 1 .427.153c.915.61 1.983.945 3.081.915 2.654-.03 4.515-1.342 4.515-3.905m-16.29-6.345a3 3 0 0 1-2.014 2.745c-.641.122-1.281.153-1.922.153-.366 0-.762 0-1.129-.03l-.03-1.617v-3.478c0-.244.061-.366.122-.427a6 6 0 0 1 1.281-.122c1.739 0 2.532.152 3.142 1.067.397.488.58 1.098.55 1.709m3.874 9.731a.5.5 0 0 0-.092-.274c-.427 0-.823-.061-1.22-.244-.122-.153-.213-.305-.305-.458a25 25 0 0 0-.763-2.288 6.4 6.4 0 0 0-1.372-2.196c-.397-.275-.855-.458-1.312-.61-.305-.122-.519-.214-.763-.306.244-.06.488-.091.763-.122a3.5 3.5 0 0 0 1.952-.67 2.93 2.93 0 0 0 1.22-2.38c.031-1.495-.915-2.807-2.288-3.326a10.7 10.7 0 0 0-2.196-.213c-1.373 0-2.41.122-3.325.122-.275 0-1.19-.03-1.831-.03-.274 0-.976-.031-1.098-.031-.061.122-.091.183-.091.244 0 .091.03.183.03.244.305.03.885.122 1.19.153.366.244.61.58.763 1.006.091.58.122 2.258.122 4.85 0 1.892.03 4.241-.061 4.943a1.36 1.36 0 0 1-.763 1.22c-.336.061-.702.092-1.037.122a.35.35 0 0 0-.092.244c0 .092.031.153.061.214.244 0 2.38-.061 2.959-.061 1.19 0 1.465.06 2.532.06a.44.44 0 0 0 .061-.213.9.9 0 0 0-.061-.274c-.366-.03-.823-.153-1.037-.183-.488-.244-.824-.763-.793-1.312l-.031-4.607c.153-.03.672-.03.824-.03a3 3 0 0 1 1.464.275 3.9 3.9 0 0 1 1.8 1.494c.641 1.251 1.007 2.624 1.16 3.997.061.396.213.732.549.762.366.061.701.061 1.067.061h1.922c.061 0 .092-.091.092-.183m-15.436-2.776c0-.183 0-.366-.031-.518-.092-.061-.183-.061-.275-.061-.091 0-.152 0-.244.03a4.85 4.85 0 0 1-1.891 2.807 3.85 3.85 0 0 1-1.556.213h-2.074c-.397 0-.824-.03-1.221-.091-.274-.061-.579-.488-.701-.793-.183-.397-.244-.824-.214-1.282v-4.21h.58a3.4 3.4 0 0 1 1.556.275c.396.152.732.427 1.006.793.153.488.244 1.007.244 1.525a.36.36 0 0 0 .306.061.6.6 0 0 0 .305-.091c0-.488-.122-1.83-.122-2.563 0-.915.122-2.044.183-2.715-.092-.06-.183-.091-.305-.06-.092 0-.214 0-.306.06-.061.275-.213 1.038-.244 1.099-.366.457-.854.823-1.403.976-.488.122-1.007.152-1.525.152h-.305v-1.8c0-1.769.03-2.47.061-2.806.03-.214.061-.458.061-.64.152-.031.701-.031 1.556-.031 1.067 0 1.86.03 2.013.03q.64 0 1.19.366a4.8 4.8 0 0 1 1.647 2.288.5.5 0 0 0 .214.03c.122 0 .122-.03.274-.121 0-1.13-.061-2.38-.122-2.868-.03-.183-.061-.244-.427-.244-.152 0-.854-.03-1.586-.03-1.037 0-1.465.03-3.081.03-.855 0-2.38.03-3.143.03-1.098 0-1.342-.03-1.83-.03h-.641a.28.28 0 0 0-.091.214q0 .137.091.274c.458.03.916.092 1.343.214.244.213.488.274.671 1.159.03.396.061 1.647.061 2.47v3.784c0 .762-.031 2.044-.031 2.501-.03.61-.183 1.22-.396 1.8a5.2 5.2 0 0 1-1.678.275.5.5 0 0 0-.092.305c0 .091.031.183.092.244h.61c.58 0 2.074-.061 2.563-.061.457 0 1.098.03 2.166.03.579 0 2.318.122 6.04.122.152 0 .335 0 .488-.03a.36.36 0 0 0 .061-.305c.153-.427.153-1.342.153-2.807m-13.637-10.067c0-.061-.03-.183-.092-.213h-.64c-.427 0-1.129.03-1.464.03-1.495 0-2.014-.092-2.258-.092h-.336c-.03.092-.091.153-.091.244 0 .061.03.123.03.214q.641.092 1.282.275c.305.305.457.732.457 1.159-.091.58-.213 1.129-.457 1.678l-2.96 7.29-3.63-9.212c.03-.427.244-.793.61-1.037.397-.092.794-.122 1.19-.153.03-.091.061-.153.061-.244 0-.061-.03-.183-.091-.214h-.458c-.55 0-1.434.061-2.41.061-.427 0-1.25-.03-2.074-.03h-.641a.6.6 0 0 0-.061.213c0 .092 0 .153.06.214q.825.23 1.557.64a33 33 0 0 1 1.525 3.356l1.525 3.692c1.251 3.05 2.014 5.094 2.105 5.46.092.061 0 .123.153.123s.153-.031.183-.123l4.759-11.41c.153-.396.397-.731.671-1.036a2.9 2.9 0 0 1 1.465-.58c0-.122.03-.213.03-.305M86.204 41.641a.6.6 0 0 0-.06-.244c-.275-.03-1.038-.091-1.373-.152a2.96 2.96 0 0 1-.641-1.404c-.03-.884-.03-2.898-.03-4.606v-4.668c-.031-.366.091-.701.335-1.006a3.15 3.15 0 0 1 1.647-.488.6.6 0 0 0 .062-.245.28.28 0 0 0-.092-.213h-.519c-.762 0-1.891.091-2.501.091-.397 0-1.495-.06-2.288-.06h-.397a.35.35 0 0 0-.091.244c0 .091.03.152.03.244.488 0 .976.091 1.434.244.427.396.64.976.61 1.555.03.336.03 1.282.061 2.99.03.915.03 2.166.03 3.234 0 .549-.03 1.922-.06 2.562-.03.367-.092.763-.244 1.099-.214.183-.428.518-1.77.61a.9.9 0 0 0-.06.274c0 .153.03.153.03.244h.305c.732 0 1.891-.091 2.837-.091.274 0 1.495.06 2.105.06h.61c0-.121.03-.182.03-.274m-8.328-12.873a.4.4 0 0 0-.06-.184h-.428c-.915 0-1.312.031-2.99.031-.58 0-1.403-.03-1.617-.03h-.488c-.06.03-.06.152-.06.243 0 .092.03.153.09.214a8.3 8.3 0 0 1 1.892.519c.336.58.519 1.22.519 1.891.03.275.03.55.03 1.312v5.46c0 .275 0 .52-.03.794-.305-.336-.854-1.038-1.556-1.892l-7.016-8.206a2 2 0 0 0-.275-.244c-.153 0-.336-.03-.488-.03-1.19 0-2.197-.062-2.532-.062-.03.061-.061.122-.061.183 0 .092.03.153.03.245a3.4 3.4 0 0 1 1.434.518c.336.336.64.671.885 1.098.06.183.091.397.06.58 0 .946-.06 2.715-.06 3.996v3.936c0 .457-.03.946-.122 1.403-.55.488-1.22.824-1.922.946a.6.6 0 0 0-.061.213c0 .061.03.153.06.183h.337c.366 0 1.22-.06 1.769-.06.793 0 1.19.06 1.922.06h1.098c.061-.03.091-.152.091-.244 0-.06-.03-.122-.06-.183a3.5 3.5 0 0 1-2.197-1.128 11.7 11.7 0 0 1-.244-2.319c0-.58-.03-1.556-.03-2.624 0-1.464.03-3.447.03-4.118.122.122.275.336.397.488l8.725 10.22c.06.06.122.122.213.122.092 0 .03 0 .122-.03q.092-.413.092-.824c0-.519-.03-1.098-.03-1.373v-7.81c0-2.288 1.097-2.959 2.348-2.99.153-.121.183-.213.183-.305m-17.053.091a.35.35 0 0 0-.092-.244h-.518c-.58 0-1.343.03-2.014.03-.732 0-1.555-.03-2.105-.03h-.67c-.062.061-.062.152-.062.244 0 .091.03.152.061.244.061 0 1.404.03 1.648.336.305.396.549.884.701 1.372.092.672.153 1.343.153 2.014 0 1.556 0 2.624-.03 3.173a9.4 9.4 0 0 1-.336 2.44c-.519 1.587-1.709 2.38-3.6 2.38a5.3 5.3 0 0 1-2.166-.458 3.02 3.02 0 0 1-1.77-2.318l-.091-5.522v-2.258c0-.427.519-.823.702-1.037.457-.091.945-.152 1.403-.183a.35.35 0 0 0 .092-.244c0-.091-.061-.183-.122-.244l-.702.03c-.671.031-1.587.031-2.166.031-.885 0-1.556-.03-2.105-.03h-.763a.35.35 0 0 0-.091.243c0 .092.03.153.06.214.58.061.977.122 1.221.183.305.183.519.488.64.824.031.244.062.823.062 1.983v4.423q-.046 1.236.183 2.471a3.66 3.66 0 0 0 1.586 2.258 6.2 6.2 0 0 0 3.356.884 6.4 6.4 0 0 0 3.172-.762 3.82 3.82 0 0 0 1.83-2.44 9 9 0 0 0 .306-2.197V33.13c0-.671.03-1.495.03-1.83 0-.702.184-1.404.55-2.014.488-.152 1.006-.213 1.525-.244.091-.03.122-.091.122-.183"/></svg>