<svg xmlns="http://www.w3.org/2000/svg" width="113" height="50" fill="none"><path fill="#8c1515" d="M29.67 23.456c-4.006 0-4.324-3.052-4.324-3.95 0-1.067.244-3.052 2.846-4.006s3.163-1.067 5.017-1.648v-.449c0-.898 0-1.067-.206-1.647-.319-1.03-1.33-1.722-2.733-1.722-1.33 0-2.471.749-2.996 1.853l-.748-.45c.449-1.647 2.152-3.294 5.073-3.294 2.021 0 3.425.58 4.249 1.853.618 1.03.693 2.415.693 3.819 0 1.273-.075 2.677-.075 3.819 0 .749-.075 1.479-.075 1.89 0 1.03.206 1.854 1.03 1.854.374 0 .449-.131.748-.319l.45.58c-.75 1.03-1.648 1.854-3.127 1.854-1.142 0-1.965-.58-2.302-1.516-.468.655-1.685 1.479-3.52 1.479m3.538-7.769c-1.965.58-2.676.899-3.238 1.198-.898.45-1.273 1.273-1.273 2.34 0 .824.318 2.153 2.228 2.153.617 0 1.516-.131 2.34-.693v-5.017h-.056zM.132 22.669c0-1.478 0-2.733-.131-4.249H.9c0 .955.243 1.647.692 2.097.618.692 2.097 1.142 3.426 1.142 2.79 0 4.118-1.067 4.118-3.37 0-1.966-1.198-2.79-2.845-3.95l-.244-.206-1.778-1.198C1.798 11.288.524 10.015.524 7.413c0-1.273.506-5.466 6.664-5.466 1.591 0 3.613.206 4.83.374 0 .206-.075 1.142-.075 1.966 0 .954 0 1.198.075 2.34h-.749c0-1.03-.318-1.648-.749-2.097-.58-.58-1.89-.898-3.294-.898-3.295 0-3.67 1.647-3.67 2.92 0 1.722.9 2.34 2.846 3.613l2.228 1.479c1.89 1.272 3.669 2.47 3.669 5.653 0 5.335-5.017 5.897-7.114 5.897-1.928.262-3.538-.02-5.054-.525M40.004 9.098c.749.075 1.89 0 2.995-.206.954-.206 1.273-.318 1.965-.618l.319.206v1.142c.748-.58 2.227-1.404 4.324-1.404 2.677 0 4.399 1.273 4.886 3.5.13.58.206 1.891.206 2.677v4.325c0 2.414.13 3.126.58 3.556.243.206.749.45 1.479.45v.692a59 59 0 0 0-3.67-.13c-1.328 0-2.845.074-3.668.13v-.692c.748-.075 1.198-.319 1.478-.506.45-.45.506-1.273.58-3.126 0-.58.076-1.722.076-2.546 0-1.067 0-2.227-.131-3.37-.206-1.89-1.198-2.789-3.126-2.789-1.33 0-2.153.319-2.79.618v7.75c0 2.415.131 3.126.58 3.557.244.206.824.449 1.404.449v.693a67 67 0 0 0-3.612-.131c-1.966 0-2.602.075-3.744.13v-.73c.617 0 1.273-.243 1.59-.617.45-.506.506-1.779.506-4.25V13.46c0-1.853-.075-2.602-.318-2.995-.206-.318-.692-.58-1.722-.58V9.06h-.131v.038zm18.364 13.534c.617 0 1.273-.206 1.59-.618.45-.505.506-1.778.506-4.25v-7.393h-1.89v-.824c.823-.318 1.516-.693 1.89-1.03 0-1.329.075-2.995.244-3.95C61.288 1.518 63.253 0 66.604 0c1.48 0 2.846.505 3.744 1.198l.075.318-1.479 2.022h-.374c-.506-1.198-1.273-1.89-2.602-1.89-.45 0-1.067.13-1.48.505-.617.618-.748 1.59-.748 3.5V8.5h3.295v1.853H63.74v8.2c0 1.965.075 2.92.318 3.294.375.617 1.723.692 2.34.692v.75a67 67 0 0 0-4.006-.132c-1.853 0-3.051.075-4.006.131zm17.016.936c-4.493 0-7.17-2.79-7.17-7.488 0-3.669 1.966-7.937 7.488-7.937 4.493 0 7.17 2.79 7.17 7.488 0 3.669-1.985 7.937-7.488 7.937m.187-13.722c-.899 0-1.591.244-2.097.693-1.198 1.03-1.778 2.79-1.778 5.391 0 1.03.206 5.972 3.819 5.972.898 0 1.59-.244 2.096-.693 1.198-1.03 1.779-2.789 1.779-5.391-.019-1.01-.187-5.972-3.82-5.972m8.817-.823c1.03.075 2.096-.075 3.238-.244.899-.13 1.48-.318 1.779-.505l.243.131v1.273a4.82 4.82 0 0 1 3.426-1.404c1.142 0 1.89.318 2.602.899v.449l-1.273 2.302h-.618c-.374-.692-1.142-1.329-2.47-1.329-.619 0-1.143.131-1.592.45v7.562c0 1.966.075 2.846.318 3.239.374.617 1.647.692 2.34.617v.824a66 66 0 0 0-4.006-.13c-1.404 0-2.845 0-4.006.13v-.749c.824-.075 1.273-.243 1.591-.617.45-.506.506-1.723.506-4.25v-4.118c0-1.853 0-2.602-.319-2.995-.243-.318-.748-.506-1.722-.506v-.954zm20.78-8.124c.898 0 2.021-.206 3.5-.45.824-.13 1.329-.318 1.591-.374l.244.13c-.131 1.199-.131 3.95-.131 5.898v12.055c0 1.778 0 2.92.243 3.295.243.318.749.58 1.722.58v.749c-.955 0-2.022.13-3.163.318-.749.131-1.33.243-1.648.374l-.374-.13V22.07a6.7 6.7 0 0 1-4.118 1.404c-4.063 0-6.665-2.789-6.665-7.17 0-1.478.244-2.788.75-4.005 1.272-2.677 3.818-4.193 7.038-4.193a16.5 16.5 0 0 1 2.845.243V5.223c0-1.853 0-2.79-.318-3.239-.206-.318-.506-.449-1.591-.505v-.6h.075zm-.525 20.498c1.03 0 1.723-.132 2.415-.58v-9.885c-.243-.243-1.142-1.03-2.92-1.03-2.845 0-4.25 1.966-4.25 6.047-.055 1.704.45 5.448 4.755 5.448m-80.756.449c-.45.58-1.591 1.722-4.006 1.722-2.302 0-3.556-.824-4.118-2.677-.244-.693-.244-2.153-.244-2.995 0-2.34 0-4.25.075-6.477v-1.03H13.61v-.58c.749-.318 1.33-.618 1.853-1.03 1.142-.898 1.891-1.965 2.733-3.556h.618v3.294h5.017v1.854h-5.017v7.75c0 2.34.45 3.612 2.602 3.612 1.03 0 1.722-.318 2.097-.58z"/><path fill="#8c1515" d="M94.251 35.699c-.243 0-.58.075-.748.243-.206.131-.206.318-.206.45 0 .243.075.448.243.954l1.404 3.669c.206.58.374 1.03.45 1.33l1.721-5.018c.206-.58.244-.692.244-.954 0-.131-.075-.244-.206-.375-.206-.13-.45-.243-.749-.243v-.58c.206 0 .618 0 .824.074.206 0 .58.075.898.075.618 0 1.517-.075 1.891-.075v.58c-.243.075-.824-.074-1.33 1.405l-3.612 9.64C94.57 48.278 93.877 50 91.406 50c-1.03 0-1.722-.243-2.303-.748v-.244l.899-1.067h.243c.244.58.75.824 1.48.824 1.141 0 1.647-1.03 2.414-3.051l.206-.58-3.033-7.92c0-.074-.075-.205-.13-.317-.076-.206-.244-.58-.244-.58-.206-.375-.505-.506-.899-.506v-.58c.58.075 1.592.075 2.097.075.318 0 .824 0 1.33-.075.243 0 .692-.075.898-.075v.505h-.075v.038zm-33.62-.131c.618.075 1.33-.075 2.022-.206.58-.131.898-.206 1.142-.319l.206.075v.824a2.96 2.96 0 0 1 2.152-.899c.75 0 1.198.206 1.648.58v.319l-.75 1.479h-.374c-.243-.45-.692-.824-1.59-.824-.375 0-.693.131-1.03.318v4.774c0 1.273.075 1.853.206 2.096.243.375 1.03.45 1.478.45v.505c-.617-.075-1.778-.075-2.545-.075-.899 0-1.854 0-2.546.131v-.505a1.55 1.55 0 0 0 1.03-.374c.318-.319.318-1.068.318-2.734v-2.676c0-1.142 0-1.648-.206-1.891-.131-.206-.506-.318-1.067-.318v-.693h-.094zm-42.269 9.21c-2.677 0-4.25-.824-4.83-2.602-.318-.899-.318-2.022-.318-2.92v-5.074c0-1.516-.075-1.778-.374-2.021-.131-.131-.45-.244-.899-.319v-.505c.618.075 1.723.131 2.34.131 1.067 0 1.723 0 2.415-.131v.58c-.45 0-.749.131-1.03.375-.318.318-.318.898-.318 2.545v4.493c0 2.677.244 4.4 3.239 4.4 3.051 0 3.238-1.78 3.238-4.493v-4.942c0-1.517-.075-1.779-.374-2.022-.206-.131-.506-.243-.899-.318v-.506c.58 0 1.33.075 2.097.075.693 0 1.404 0 2.228-.13v.58c-.45 0-.75.13-1.03.374-.318.318-.318.898-.318 2.546v3.819c0 1.197 0 2.545-.375 3.612-.599 1.629-2.134 2.453-4.792 2.453m18.102-.58c.505-.076.824-.132 1.067-.375.318-.318.318-1.067.318-2.733v-2.677c0-1.142 0-1.722-.206-1.966-.13-.206-.374-.318-1.067-.374v-.58c.375.075 1.404-.075 2.153-.206a6 6 0 0 0 1.03-.319l.206.206c-.075.618-.075 1.966-.075 3.744v2.733c0 1.273.075 1.854.206 2.097.206.243.58.45 1.142.45v.449c-.506-.075-1.48-.075-2.303-.075-.955 0-1.966.075-2.471.13zm2.34-10.858c-.749 0-1.198-.45-1.198-1.142 0-.693.505-1.198 1.273-1.198.749 0 1.198.45 1.198 1.142-.019.749-.524 1.198-1.273 1.198m37.795 10.857c.505-.075.823-.13 1.067-.374.318-.318.318-1.067.318-2.733v-2.677c0-1.142 0-1.722-.206-1.966-.13-.206-.374-.318-1.067-.374v-.58c.374.075 1.404-.075 2.153-.206.374-.075.823-.206 1.03-.319l.205.206c-.075.618-.075 1.966-.075 3.744v2.733c0 1.273.075 1.854.206 2.097.206.243.58.45 1.142.45v.449c-.58-.075-1.516-.075-2.34-.075-.954 0-1.965.075-2.47.13v-.505zm2.34-10.857c-.749 0-1.198-.45-1.198-1.142 0-.693.505-1.198 1.273-1.198.748 0 1.198.45 1.198 1.142 0 .749-.525 1.198-1.273 1.198M68.905 44.328c0-.954-.075-1.965-.131-2.47h.618c0 .505.13.954.374 1.197.374.45.824.618 1.647.618h.132c1.03 0 1.59-.45 1.59-1.329 0-.693-.449-1.03-1.197-1.479l-1.33-.824c-.692-.449-1.516-1.066-1.516-2.414 0-1.067.45-1.891 1.33-2.34.58-.319 1.478-.319 1.89-.319.749 0 1.853.132 2.471.244-.075.243-.075.898-.075 1.142 0 .206 0 1.067.075 1.273h-.618c0-.375-.13-.75-.374-1.067-.243-.319-.824-.506-1.516-.506-.955 0-1.48.375-1.48 1.198 0 .618.506.955.955 1.273h.075l1.273.749c.824.505 1.89 1.142 1.89 2.602 0 2.471-2.302 2.845-3.612 2.845-.749-.018-1.572-.074-2.47-.393m19.936-.617c-.318.318-1.03 1.067-2.545 1.067-1.48 0-2.303-.506-2.603-1.723-.13-.449-.13-1.404-.13-1.89v-4.736H82.29v-.375a6.5 6.5 0 0 0 1.198-.617c.692-.58 1.198-1.273 1.778-2.303h.45v2.097h3.163v1.142h-3.164v4.942c0 1.478.244 2.34 1.647 2.34.618 0 1.068-.206 1.33-.375zM45.9 35.193c-.206 0-.618 0-.899.075-.505 0-1.03.075-1.404.075-.692 0-1.722-.075-2.021-.075v.58c.13 0 .617-.075.954.58.131.244.206.45.243.581.075.131.132.243.132.318l3.05 7.62.956-.207 3.37-7.488c0-.075.074-.13.13-.243.075-.075.075-.206.318-.58.206-.375.618-.58.955-.58v-.58c-.374 0-1.198.074-1.853.074-.318 0-.618 0-.955-.075-.243 0-.618-.075-.898-.075v.506c.318 0 .617.13.748.243.075.075.206.243.206.374 0 .206-.075.375-.243.955l-1.853 4.493c-.075-.244-.206-.618-.375-1.142l-1.273-3.37c-.206-.505-.243-.692-.243-.954 0-.131 0-.244.131-.319a1.16 1.16 0 0 1 .824-.318v-.505zm-20.742.375c.506.075 1.198 0 1.891-.131a8 8 0 0 0 1.273-.375l.206.131v.749c.45-.374 1.479-.899 2.733-.899 1.722 0 2.79.824 3.126 2.228.075.374.131 1.198.131 1.722v2.733c0 1.517.075 1.966.375 2.303.13.13.505.243.898.243v.45c-.618 0-1.722-.075-2.34-.075-.898 0-1.853.074-2.34.13v-.449c.45-.075.749-.206.955-.318.243-.243.318-.824.374-1.965v-1.648c0-.692 0-1.479-.075-2.152-.13-1.199-.748-1.779-1.965-1.779-.824 0-1.404.206-1.779.374v4.98c0 1.516.075 1.965.375 2.302.131.132.505.244.898.244v.449c-.823-.206-1.778-.206-2.414-.206-1.273 0-1.648 0-2.34.131v-.45c.374 0 .823-.13 1.03-.373.243-.319.317-1.142.317-2.734v-2.676c0-1.142 0-1.648-.205-1.891-.131-.206-.45-.374-1.067-.318v-.712h-.057zm30.85 9.21c-2.845 0-4.399-1.648-4.399-4.643 0-.505.131-5.148 4.437-5.148 1.273 0 2.414.506 2.92 1.404.58.899.618 1.779.618 2.546v.58h-5.897c0 .506.075.899.131 1.198.318 1.854 1.33 2.733 3.126 2.733 1.03 0 1.648-.205 2.228-.58l.243.45c-.599.842-1.872 1.46-3.407 1.46m-2.283-6.346h3.669c0-1.142-.206-2.415-1.854-2.415-1.441.075-1.74 1.441-1.815 2.415"/></svg>